<svg width="41" height="60" viewBox="0 0 41 60" fill="none" xmlns="http://www.w3.org/2000/svg">
<path d="M40.9106 0L40.9106 59.8L20.8509 52L0.791241 59.8L0.791241 0L40.9106 0Z" fill="#FFE600"/>
<path d="M13.591 23.7598C13.3376 23.3065 13.0443 22.8665 12.711 22.4398C12.3776 22.0131 12.0176 21.6331 11.631 21.2998C12.6576 20.7665 13.6243 20.1465 14.531 19.4398C15.451 18.7198 16.2643 17.9131 16.971 17.0198C17.691 16.1131 18.251 15.1265 18.651 14.0598C19.0643 12.9931 19.271 11.8465 19.271 10.6198V5.8198H22.311V9.7798C22.311 11.1531 22.5243 12.4198 22.951 13.5798C23.391 14.7398 23.9843 15.7865 24.731 16.7198C25.4776 17.6531 26.3243 18.4798 27.271 19.1998C28.2176 19.9065 29.2043 20.4998 30.231 20.9798C29.8843 21.3531 29.5376 21.7931 29.191 22.2998C28.8443 22.8065 28.5576 23.2798 28.331 23.7198C27.251 23.1465 26.2243 22.4331 25.251 21.5798C24.291 20.7265 23.4376 19.7998 22.691 18.7998C21.9576 17.7998 21.3776 16.7798 20.951 15.7398C20.5243 16.8465 19.9243 17.9065 19.151 18.9198C18.3776 19.9198 17.511 20.8331 16.551 21.6598C15.591 22.4865 14.6043 23.1865 13.591 23.7598ZM13.611 48.0398C13.451 47.6531 13.2443 47.2398 12.991 46.7998C12.7376 46.3731 12.4376 45.9731 12.091 45.5998C12.9043 45.3731 13.7043 45.0665 14.491 44.6798C15.291 44.2798 16.051 43.8331 16.771 43.3398C16.3043 42.9798 15.8376 42.6531 15.371 42.3598C14.9043 42.0531 14.4576 41.7998 14.031 41.5998L15.711 39.6998C16.2576 39.9398 16.7976 40.2198 17.331 40.5398C17.8776 40.8598 18.4176 41.2065 18.951 41.5798C19.711 40.8465 20.3243 40.1065 20.791 39.3598H13.131V36.9998H27.291C27.251 37.3731 27.211 37.8265 27.171 38.3598C27.1443 38.8931 27.131 39.4798 27.131 40.1198C27.131 40.9465 27.191 41.6865 27.311 42.3398C27.431 42.9931 27.5976 43.5731 27.811 44.0798C27.9576 43.7731 28.0843 43.4798 28.191 43.1998C28.311 42.9198 28.3976 42.6931 28.451 42.5198C28.5976 42.6265 28.8043 42.7598 29.071 42.9198C29.351 43.0665 29.651 43.2065 29.971 43.3398C30.291 43.4598 30.571 43.5531 30.811 43.6198C30.691 44.0065 30.531 44.4331 30.331 44.8998C30.1443 45.3665 29.9376 45.8131 29.711 46.2398C29.4976 46.6665 29.291 47.0131 29.091 47.2798C28.7976 47.6931 28.4376 47.9398 28.011 48.0198C27.5843 48.1131 27.2043 48.0465 26.871 47.8198C26.4576 47.5265 26.0843 47.0798 25.751 46.4798C25.4176 45.8931 25.1376 45.2131 24.911 44.4398C24.6976 43.6531 24.5376 42.8265 24.431 41.9598C24.3376 41.0798 24.311 40.2131 24.351 39.3598H21.411L23.311 40.4598C22.6976 41.4331 21.9443 42.3598 21.051 43.2398C22.0776 44.1198 22.9243 44.9798 23.591 45.8198C23.2043 46.0331 22.7843 46.3331 22.331 46.7198C21.8776 47.1065 21.5176 47.4598 21.251 47.7798C20.9576 47.3798 20.6043 46.9531 20.191 46.4998C19.791 46.0465 19.351 45.5931 18.871 45.1398C18.071 45.7531 17.2243 46.3065 16.331 46.7998C15.4376 47.2931 14.531 47.7065 13.611 48.0398ZM13.571 36.8198C13.211 36.4865 12.8243 36.1798 12.411 35.8998C11.9976 35.6198 11.5776 35.4131 11.151 35.2798C11.551 34.9065 11.9376 34.4665 12.311 33.9598C12.6843 33.4398 13.0243 32.8998 13.331 32.3398C13.651 31.7665 13.9243 31.2131 14.151 30.6798C14.391 30.1331 14.5643 29.6465 14.671 29.2198L17.491 29.9998C17.451 30.1465 17.4043 30.3065 17.351 30.4798C17.2976 30.6398 17.2376 30.8065 17.171 30.9798H28.851V33.1998H16.131C15.7576 33.8931 15.3443 34.5598 14.891 35.1998C14.4376 35.8265 13.9976 36.3665 13.571 36.8198ZM16.711 36.1398V33.9398H26.851V36.1398H16.711Z" fill="#368D47"/>
</svg>
