<svg width="26" height="26" viewBox="0 0 26 26" fill="none" xmlns="http://www.w3.org/2000/svg">
<path d="M20.6669 25C20.2945 25 19.9344 24.973 19.6136 24.9496L19.4084 24.9349C9.81779 24.2453 1.57799 15.8332 1.03965 6.18207L1.02981 6.01736C0.967131 4.95909 0.87372 3.35876 2.25644 2.46642C2.81937 2.10505 6.66395 1.02588 7.30307 1.00253C9.25487 0.928779 9.87801 2.48608 10.2885 3.51486C10.3537 3.67956 10.4164 3.83566 10.4815 3.98316L10.5356 4.10607C11.6614 6.66634 11.8728 7.42717 11.8581 7.87703C11.8126 9.29422 10.425 10.3009 9.41219 11.0347C9.3704 11.0654 9.32861 11.0949 9.28805 11.1244C9.67398 11.8545 10.6585 13.2373 11.0088 13.6416C12.0179 14.8044 13.3158 15.8344 14.8718 16.7108C15.0857 16.4563 15.3524 16.1085 15.5232 15.886C15.9522 15.328 16.2054 15.0023 16.4266 14.8204C17.7712 13.7142 19.1871 14.3275 20.2196 14.7749C20.3965 14.8511 20.5637 14.9236 20.7235 14.9863L20.882 15.0478C22.8867 15.8221 23.7704 16.2339 24.144 16.567C24.8004 17.152 25.0449 18.1575 24.9933 18.8433C24.9331 19.6533 24.1293 22.4225 23.8724 23.0924C23.2505 24.7124 21.8874 25 20.6669 25ZM3.23603 4.02987C2.80953 4.32363 2.81322 4.93819 2.86976 5.9092L2.87959 6.07882C3.11435 10.2812 4.98133 14.3742 8.1364 17.6056C11.2988 20.8443 15.3487 22.7925 19.5399 23.0936L19.75 23.1096C21.3614 23.2301 21.8727 23.1551 22.1504 22.4299C22.4196 21.7281 23.1177 19.1936 23.1546 18.7056C23.1743 18.4389 23.0366 18.0493 22.9162 17.9411C22.7674 17.8256 22.1689 17.5208 20.2183 16.7673L20.0573 16.7046C19.8631 16.6296 19.6726 16.5461 19.487 16.4662C18.4878 16.0335 18.0355 15.8909 17.6053 16.2388C17.502 16.3371 17.1923 16.7403 16.9871 17.0082C16.048 18.2312 15.5773 18.8445 14.8398 18.729L14.6911 18.7056L14.5571 18.6356C12.555 17.5921 10.8932 16.3199 9.61868 14.8511C9.39375 14.593 8.78535 13.7854 8.2716 13C7.31045 11.5312 7.11011 10.8736 7.45057 10.2935L7.53414 10.1509L7.66197 10.0464C7.85985 9.8842 8.08969 9.71827 8.33182 9.54127C8.90581 9.12583 9.96405 8.35762 10.0157 7.84385C9.98494 7.63981 9.78583 6.97977 8.84927 4.84724L8.79396 4.72186C8.71653 4.54487 8.64524 4.36665 8.57764 4.19457C8.14254 3.10188 7.95326 2.82163 7.38542 2.84253C6.84217 2.90153 3.73135 3.79142 3.23725 4.02741L3.23603 4.02987Z" fill="black" stroke="black"/>
<path d="M13.7359 1.83971C18.0959 1.58753 22.6167 5.30587 23.7431 9.3999C23.9876 10.2902 24.7085 13.0758 23.4586 13.3601C21.6937 13.7628 22.0413 11.8033 21.8199 10.6788C21.1364 7.21264 18.4705 4.85297 15.0837 4.15949C14.4658 4.0334 13.2802 4.14276 12.8644 3.67572C12.2105 2.94105 12.7936 1.89374 13.7372 1.83842L13.7359 1.83971Z" fill="black"/>
<path d="M12.9112 6.25854C13.4919 5.67565 15.1376 6.10089 15.856 6.34862C18.1446 7.13948 20.1845 9.7651 20.0258 12.253C19.9332 13.7155 18.1075 13.8002 17.7993 12.4835C17.4368 10.9309 17.5691 10.0221 16.0412 8.94509C15.1151 8.29333 14.3624 8.40063 13.3953 8.15025C12.5209 7.92505 12.3476 6.82287 12.9125 6.25721L12.9112 6.25854Z" fill="black"/>
<path d="M14.2794 10.1663C16.0891 9.61792 16.3517 12.825 15.2087 13.2871C13.1397 14.1207 12.9004 10.5846 14.2794 10.1663Z" fill="black"/>
</svg>
