<svg width="64" height="62" viewBox="0 0 64 62" fill="none" xmlns="http://www.w3.org/2000/svg">
<g filter="url(#filter0_d_339_219)">
<path d="M21.4927 36.8586C21.6264 37.3944 22.1755 37.7504 22.7192 37.6535L24.2597 37.3792C24.8034 37.2824 25.1358 36.7695 25.0022 36.2336L23.2674 29.2768C23.1338 28.741 22.5847 28.3851 22.041 28.4819L20.5005 28.7562C19.9568 28.853 19.6243 29.366 19.758 29.9018L21.4927 36.8586ZM39.0031 26.2356C38.7997 25.42 37.8436 24.8933 36.8785 25.0652L32.594 25.8282C31.9564 25.9417 31.3403 25.4371 31.3383 24.7997L31.3309 22.5143L31.298 22.2723C31.2222 21.9683 31.0028 21.7131 30.716 21.5551L30.3665 21.3646C29.9203 21.1213 29.3784 21.2194 29.0886 21.5957L25.0372 26.8564C24.7791 27.1812 24.6785 27.5863 24.7802 27.9941L26.6291 35.4085C26.8325 36.2241 27.7886 36.7508 28.7537 36.5789L36.65 35.1727C37.3782 35.043 37.9087 34.5613 38.0388 33.9806L39.385 28.2816C39.4214 28.097 39.4209 27.9112 39.3728 27.7184L39.0031 26.2356Z" fill="white"/>
</g>
<defs>
<filter id="filter0_d_339_219" x="-4.27158" y="-2.76846" width="67.6824" height="64.4379" filterUnits="userSpaceOnUse" color-interpolation-filters="sRGB">
<feFlood flood-opacity="0" result="BackgroundImageFix"/>
<feColorMatrix in="SourceAlpha" type="matrix" values="0 0 0 0 0 0 0 0 0 0 0 0 0 0 0 0 0 0 127 0" result="hardAlpha"/>
<feOffset/>
<feGaussianBlur stdDeviation="12"/>
<feComposite in2="hardAlpha" operator="out"/>
<feColorMatrix type="matrix" values="0 0 0 0 1 0 0 0 0 0.666667 0 0 0 0 0 0 0 0 1 0"/>
<feBlend mode="normal" in2="BackgroundImageFix" result="effect1_dropShadow_339_219"/>
<feBlend mode="normal" in="SourceGraphic" in2="effect1_dropShadow_339_219" result="shape"/>
</filter>
</defs>
</svg>
