<svg width="65" height="62" viewBox="0 0 65 62" fill="none" xmlns="http://www.w3.org/2000/svg">
<g filter="url(#filter0_d_339_216)">
<path d="M24.1667 36.4879C24.1667 37.0402 24.6144 37.4879 25.1667 37.4879H26.1976C26.7499 37.4879 27.1976 37.0402 27.1976 36.4879V29.3952C27.1976 28.8429 26.7499 28.3952 26.1976 28.3952H25.1667C24.6144 28.3952 24.1667 28.8429 24.1667 29.3952V36.4879ZM40.8367 29.1529C40.8367 28.3194 40.1547 27.6374 39.3212 27.6374H35.7692C35.1351 27.6374 34.6611 27.0548 34.7901 26.4339L35.2598 24.1746L35.2825 23.9321C35.2825 23.6215 35.1537 23.3335 34.9491 23.129L34.8536 23.0343C34.4623 22.6467 33.8313 22.6485 33.4422 23.0382L29.1601 27.3268C28.8797 27.5995 28.713 27.9784 28.713 28.3952V35.9724C28.713 36.8059 29.395 37.4879 30.2285 37.4879H37.048C37.6769 37.4879 38.2149 37.109 38.4423 36.5635L40.7306 31.2215C40.7988 31.0472 40.8367 30.8654 40.8367 30.6683V29.1529Z" fill="white"/>
<path d="M24.1667 36.4879C24.1667 37.0402 24.6144 37.4879 25.1667 37.4879H26.1976C26.7499 37.4879 27.1976 37.0402 27.1976 36.4879V29.3952C27.1976 28.8429 26.7499 28.3952 26.1976 28.3952H25.1667C24.6144 28.3952 24.1667 28.8429 24.1667 29.3952V36.4879ZM40.8367 29.1529C40.8367 28.3194 40.1547 27.6374 39.3212 27.6374H35.7692C35.1351 27.6374 34.6611 27.0548 34.7901 26.4339L35.2598 24.1746L35.2825 23.9321C35.2825 23.6215 35.1537 23.3335 34.9491 23.129L34.8536 23.0343C34.4623 22.6467 33.8313 22.6485 33.4422 23.0382L29.1601 27.3268C28.8797 27.5995 28.713 27.9784 28.713 28.3952V35.9724C28.713 36.8059 29.395 37.4879 30.2285 37.4879H37.048C37.6769 37.4879 38.2149 37.109 38.4423 36.5635L40.7306 31.2215C40.7988 31.0472 40.8367 30.8654 40.8367 30.6683V29.1529Z" fill="white" fill-opacity="0.3"/>
</g>
<defs>
<filter id="filter0_d_339_216" x="0.166672" y="-1.25525" width="64.67" height="62.7431" filterUnits="userSpaceOnUse" color-interpolation-filters="sRGB">
<feFlood flood-opacity="0" result="BackgroundImageFix"/>
<feColorMatrix in="SourceAlpha" type="matrix" values="0 0 0 0 0 0 0 0 0 0 0 0 0 0 0 0 0 0 127 0" result="hardAlpha"/>
<feOffset/>
<feGaussianBlur stdDeviation="12"/>
<feComposite in2="hardAlpha" operator="out"/>
<feColorMatrix type="matrix" values="0 0 0 0 1 0 0 0 0 0.666667 0 0 0 0 0 0 0 0 1 0"/>
<feBlend mode="normal" in2="BackgroundImageFix" result="effect1_dropShadow_339_216"/>
<feBlend mode="normal" in="SourceGraphic" in2="effect1_dropShadow_339_216" result="shape"/>
</filter>
</defs>
</svg>
